<svg xmlns="http://www.w3.org/2000/svg" version="1.1" xmlns:xlink="http://www.w3.org/1999/xlink" xmlns:svgjs="http://svgjs.dev/svgjs" width="1440" height="560" preserveAspectRatio="none" viewBox="0 0 1440 560"><g mask="url(&quot;#SvgjsMask1050&quot;)" fill="none"><rect width="1440" height="560" x="0" y="0" fill="#0e2a47"></rect><path d="M 0,128 C 57.6,140 172.8,197 288,188 C 403.2,179 460.8,89.4 576,83 C 691.2,76.6 748.8,149.4 864,156 C 979.2,162.6 1036.8,118.4 1152,116 C 1267.2,113.6 1382.4,138.4 1440,144L1440 560L0 560z" fill="#184a7e"></path><path d="M 0,500 C 96,474.8 288,377.2 480,374 C 672,370.8 768,493.4 960,484 C 1152,474.6 1344,358.4 1440,327L1440 560L0 560z" fill="#2264ab"></path></g><defs><mask id="SvgjsMask1050"><rect width="1440" height="560" fill="#ffffff"></rect></mask></defs></svg>